<svg width="23" height="41" viewBox="0 0 23 41" fill="none" xmlns="http://www.w3.org/2000/svg">
<path d="M8.39146 11.2346H13.9858C18.6477 11.2346 20.5125 13.0994 20.5125 17.7613V23.3557C20.5125 26.8801 18.1368 29.5281 13.9858 29.5281H8.39146C3.63684 29.5281 1.86475 26.8801 1.86475 23.3557V17.7613C1.86475 13.0994 3.72952 11.2346 8.39146 11.2346Z" stroke="#8897C4" stroke-width="1.39858" stroke-linecap="round" stroke-linejoin="round"/>
<path fill-rule="evenodd" clip-rule="evenodd" d="M10.7583 15.3068C10.944 15.1213 11.1924 15.0122 11.4546 15.001C11.7168 14.9897 11.9737 15.0771 12.1746 15.2459L12.2417 15.3073L13.2383 16.3034H14.6473C14.9118 16.3035 15.1666 16.4035 15.3606 16.5835C15.5546 16.7634 15.6734 17.01 15.6932 17.2739L15.6963 17.3526V18.7615L16.693 19.7582C16.8786 19.9439 16.9878 20.1924 16.999 20.4547C17.0103 20.717 16.9228 20.974 16.7538 21.175L16.6924 21.2416L15.6958 22.2383V23.6472C15.6959 23.9119 15.5959 24.1668 15.416 24.3609C15.236 24.555 14.9893 24.6738 14.7254 24.6937L14.6473 24.6963H13.2389L12.2422 25.693C12.0565 25.8786 11.808 25.9878 11.5457 25.999C11.2834 26.0103 11.0264 25.9228 10.8254 25.7538L10.7588 25.693L9.76219 24.6963H8.35274C8.08807 24.6964 7.83315 24.5964 7.63908 24.4165C7.44501 24.2365 7.32613 23.9898 7.30628 23.7259L7.30366 23.6472V22.2383L6.30703 21.2416C6.12144 21.0559 6.01223 20.8073 6.00097 20.545C5.9897 20.2827 6.0772 20.0257 6.24618 19.8248L6.30703 19.7582L7.30366 18.7615V17.3526C7.30371 17.088 7.40373 16.8332 7.58368 16.6392C7.76363 16.4452 8.01023 16.3264 8.27406 16.3066L8.35274 16.3034H9.76167L10.7583 15.3068ZM11.5 18.9262C11.0826 18.9262 10.6824 19.092 10.3873 19.3871C10.0922 19.6823 9.92637 20.0825 9.92637 20.4999C9.92637 20.9172 10.0922 21.3175 10.3873 21.6126C10.6824 21.9077 11.0826 22.0735 11.5 22.0735C11.9174 22.0735 12.3176 21.9077 12.6127 21.6126C12.9078 21.3175 13.0736 20.9172 13.0736 20.4999C13.0736 20.0825 12.9078 19.6823 12.6127 19.3871C12.3176 19.092 11.9174 18.9262 11.5 18.9262Z" fill="#8897C4"/>
</svg>
