<svg width="23" height="37" viewBox="0 0 23 37" fill="none" xmlns="http://www.w3.org/2000/svg">
<g clip-path="url(#clip0_266_3656)">
<path d="M10.0698 14.6443V14.6443V16.6341C10.0698 16.7259 10.0499 16.8183 10.0097 16.9062C9.96938 16.9943 9.90884 17.0776 9.82893 17.1499L10.1432 17.4973L9.82893 17.1499C9.74892 17.2223 9.65142 17.2819 9.54095 17.3231L9.71573 17.7916L9.54095 17.3231C9.43045 17.3643 9.31067 17.3858 9.18886 17.3853V17.3853H9.187H7.00845V17.3853L7.00569 17.3854C6.8857 17.386 6.76777 17.3646 6.65937 17.3234C6.55102 17.2822 6.45603 17.2226 6.3789 17.1506L6.37895 17.1506L6.37304 17.1452C6.29415 17.0739 6.23455 16.9917 6.19509 16.9048C6.15571 16.8182 6.13649 16.7272 6.13697 16.6367H6.13698V16.6341V14.6495V14.6495C6.13698 14.467 6.21611 14.2811 6.37533 14.1359C6.53594 13.9893 6.76321 13.8993 7.00947 13.8982H9.19239C9.31319 13.8983 9.4318 13.9203 9.54098 13.9618C9.65018 14.0033 9.74625 14.063 9.82476 14.1353L9.8247 14.1353L9.8315 14.1414C9.91065 14.2116 9.97057 14.2929 10.0104 14.3788C10.0501 14.4646 10.0698 14.5547 10.0698 14.6443ZM12.1985 16.6362L12.1985 16.6362V16.6341L12.1985 14.6495L12.1985 14.6471C12.1981 14.557 12.2175 14.4664 12.2573 14.3802C12.2971 14.2937 12.3572 14.212 12.4368 14.1414L12.4368 14.1414L12.4435 14.1353C12.522 14.063 12.6181 14.0033 12.7273 13.9618C12.8365 13.9203 12.9551 13.8983 13.0759 13.8982H15.2578C15.5047 13.9004 15.7325 13.9908 15.8941 14.1377L16.2304 13.7676L15.8941 14.1377C16.054 14.283 16.1348 14.4688 16.137 14.652V16.6316C16.1348 16.8143 16.0545 16.9996 15.8954 17.1447C15.7348 17.2913 15.5084 17.382 15.2625 17.3853H13.0772C12.8293 17.3837 12.5994 17.2951 12.4337 17.1495C12.3557 17.0776 12.2966 16.9952 12.2573 16.9081C12.2176 16.8202 12.1982 16.7279 12.1985 16.6362ZM16.1356 21.2934L16.137 21.2922V22.1444C16.1348 22.327 16.0545 22.5124 15.8954 22.6575C15.7348 22.8041 15.5084 22.8948 15.2625 22.8981H13.0757V22.8981L13.071 22.8981C12.8218 22.9004 12.5889 22.8146 12.4197 22.6701C12.3425 22.599 12.284 22.5175 12.2452 22.4315C12.2057 22.344 12.1865 22.2523 12.1872 22.1611H12.1873V22.1571L12.1873 20.1725L12.1872 20.1702C12.1868 20.0802 12.2063 19.9895 12.246 19.9032C12.2859 19.8168 12.346 19.735 12.4256 19.6644L12.4256 19.6644L12.4322 19.6584C12.5107 19.5861 12.6068 19.5264 12.7161 19.4849C12.8252 19.4434 12.9437 19.4214 13.0645 19.4212C13.0646 19.4212 13.0648 19.4212 13.0649 19.4212L15.2465 19.4212C15.4934 19.4234 15.7212 19.5139 15.8828 19.6607C16.0433 19.8065 16.1241 19.9932 16.1257 20.177L16.1356 21.2934ZM10.0698 20.1662V20.1674V22.1481C10.0665 22.331 9.98486 22.5163 9.82445 22.6609C9.66183 22.8074 9.43319 22.8971 9.18591 22.8981L7.00845 22.8981L7.00657 22.8981C6.88592 22.8986 6.76731 22.8773 6.65795 22.8364C6.54861 22.7955 6.45222 22.7364 6.37325 22.6646C6.29437 22.5929 6.23477 22.5104 6.19527 22.4233L5.7413 22.629L6.19527 22.4233C6.15585 22.3363 6.13656 22.245 6.13698 22.1543V22.152V20.1686C6.13805 19.9852 6.21796 19.7987 6.37735 19.6527C6.53801 19.5055 6.76493 19.4143 7.0115 19.411H9.19049C9.43895 19.4133 9.66857 19.5035 9.83293 19.6504C9.99153 19.7966 10.0702 19.9831 10.0698 20.1662Z" stroke="#8897C4"/>
<path d="M8.39146 27.5125H13.9858C18.6477 27.5125 20.5125 25.6477 20.5125 20.9858V15.3915C20.5125 10.7295 18.6477 8.86475 13.9858 8.86475H8.39146C3.72952 8.86475 1.86475 10.7295 1.86475 15.3915V20.9858C1.86475 25.6477 3.72952 27.5125 8.39146 27.5125Z" stroke="#8897C4" stroke-width="1.39858" stroke-linecap="round" stroke-linejoin="round"/>
</g>
<defs>
<clipPath id="clip0_266_3656">
<rect width="22.3773" height="37" fill="white"/>
</clipPath>
</defs>
</svg>
