<svg width="23" height="41" viewBox="0 0 23 41" fill="none" xmlns="http://www.w3.org/2000/svg">
<path d="M8.39146 11.4802H13.9858C18.6477 11.4802 20.5125 13.345 20.5125 18.0069V23.6013C20.5125 27.1257 18.1368 29.7737 13.9858 29.7737H8.39146C3.63684 29.7737 1.86475 27.1257 1.86475 23.6013V18.0069C1.86475 13.345 3.72952 11.4802 8.39146 11.4802Z" stroke="#8897C4" stroke-width="1.39858" stroke-linecap="round" stroke-linejoin="round"/>
<path d="M11.5143 18.3013C11.7984 18.3013 12.0287 18.1477 12.0287 17.9584C12.0287 17.769 11.7984 17.6155 11.5143 17.6155C11.2303 17.6155 11 17.769 11 17.9584C11 18.1477 11.2303 18.3013 11.5143 18.3013Z" fill="#8897C4"/>
<path d="M10.0861 22.444C10.2754 22.444 10.4289 22.2137 10.4289 21.9296C10.4289 21.6456 10.2754 21.4153 10.0861 21.4153C9.89668 21.4153 9.74316 21.6456 9.74316 21.9296C9.74316 22.2137 9.89668 22.444 10.0861 22.444Z" fill="#8897C4"/>
<path d="M8.02868 23.1297C8.21805 23.1297 8.37157 22.8995 8.37157 22.6154C8.37157 22.3313 8.21805 22.1011 8.02868 22.1011C7.83931 22.1011 7.68579 22.3313 7.68579 22.6154C7.68579 22.8995 7.83931 23.1297 8.02868 23.1297Z" fill="#8897C4"/>
<path d="M13.3429 21.8441C13.5323 21.8441 13.6858 21.6138 13.6858 21.3298C13.6858 21.0457 13.5323 20.8154 13.3429 20.8154C13.1535 20.8154 13 21.0457 13 21.3298C13 21.6138 13.1535 21.8441 13.3429 21.8441Z" fill="#8897C4"/>
<path d="M15.4003 20.6441C15.5896 20.6441 15.7432 20.4139 15.7432 20.1298C15.7432 19.8458 15.5896 19.6155 15.4003 19.6155C15.2109 19.6155 15.0574 19.8458 15.0574 20.1298C15.0574 20.4139 15.2109 20.6441 15.4003 20.6441Z" fill="#8897C4"/>
<path d="M13.3429 23.7301C13.5323 23.7301 13.6858 23.4998 13.6858 23.2158C13.6858 22.9317 13.5323 22.7014 13.3429 22.7014C13.1535 22.7014 13 22.9317 13 23.2158C13 23.4998 13.1535 23.7301 13.3429 23.7301Z" fill="#8897C4"/>
<path d="M15.4003 22.5301C15.5896 22.5301 15.7432 22.2999 15.7432 22.0158C15.7432 21.7317 15.5896 21.5015 15.4003 21.5015C15.2109 21.5015 15.0574 21.7317 15.0574 22.0158C15.0574 22.2999 15.2109 22.5301 15.4003 22.5301Z" fill="#8897C4"/>
<path d="M11.5523 21.4835C11.431 21.4835 11.3098 21.4555 11.198 21.3903L6.25631 18.5372C5.92065 18.3414 5.80874 17.9125 6.00454 17.5861C6.20035 17.2505 6.62926 17.1386 6.9556 17.3344L11.5429 19.9917L16.1023 17.353C16.438 17.1572 16.8669 17.2784 17.0533 17.6048C17.2398 17.9311 17.1279 18.3693 16.8016 18.5558L11.8972 21.3903C11.7947 21.4462 11.6735 21.4835 11.5523 21.4835Z" fill="#8897C4"/>
<path d="M11.5518 26.5562C11.1696 26.5562 10.8525 26.2392 10.8525 25.8569V20.7847C10.8525 20.4025 11.1696 20.0854 11.5518 20.0854C11.9341 20.0854 12.2511 20.4025 12.2511 20.7847V25.8569C12.2511 26.2392 11.9341 26.5562 11.5518 26.5562Z" fill="#8897C4"/>
<path d="M11.552 26.7703C11.0112 26.7703 10.4798 26.6491 10.0509 26.416L7.06725 24.7563C6.17216 24.2621 5.48218 23.078 5.48218 22.0524V18.8916C5.48218 17.8753 6.18149 16.6912 7.06725 16.1877L10.0509 14.528C10.9087 14.0525 12.1953 14.0525 13.0531 14.528L16.0368 16.1877C16.9319 16.6818 17.6219 17.866 17.6219 18.8916V22.0524C17.6219 23.0687 16.9225 24.2528 16.0368 24.7563L13.0531 26.416C12.6242 26.6584 12.0928 26.7703 11.552 26.7703ZM11.552 15.5816C11.2443 15.5816 10.9459 15.6376 10.7315 15.7588L7.74791 17.4184C7.29104 17.6702 6.88076 18.3788 6.88076 18.8916V22.0524C6.88076 22.5745 7.29104 23.2738 7.74791 23.5256L10.7315 25.1852C11.1604 25.4276 11.9436 25.4276 12.3725 25.1852L15.3561 23.5256C15.813 23.2738 16.2233 22.5652 16.2233 22.0524V18.8916C16.2233 18.3695 15.813 17.6702 15.3561 17.4184L12.3725 15.7588C12.158 15.6376 11.8597 15.5816 11.552 15.5816Z" fill="#8897C4"/>
</svg>
