<svg width="24" height="25" viewBox="0 0 24 25" fill="none" xmlns="http://www.w3.org/2000/svg">
<path d="M20 12.123H10.5M18 15.123L21 12.123L18 9.12305M13 7.12305V6.12305C13 5.59261 12.7893 5.08391 12.4142 4.70883C12.0391 4.33376 11.5304 4.12305 11 4.12305H6C5.46957 4.12305 4.96086 4.33376 4.58579 4.70883C4.21071 5.08391 4 5.59261 4 6.12305V18.123C4 18.6535 4.21071 19.1622 4.58579 19.5373C4.96086 19.9123 5.46957 20.123 6 20.123H11C11.5304 20.123 12.0391 19.9123 12.4142 19.5373C12.7893 19.1622 13 18.6535 13 18.123V17.123" stroke="#8897C4" stroke-width="1.5" stroke-linecap="round" stroke-linejoin="round"/>
</svg>
