<svg width="23" height="34" viewBox="0 0 23 34" fill="none" xmlns="http://www.w3.org/2000/svg">
<path d="M13.9859 26.8847H8.39153C3.32867 26.8847 1.16553 24.7216 1.16553 19.6587V14.0644C1.16553 9.00152 3.32867 6.83838 8.39153 6.83838H13.9859C19.0487 6.83838 21.2119 9.00152 21.2119 14.0644V19.6587C21.2119 24.7216 19.0487 26.8847 13.9859 26.8847ZM8.39153 8.23696C4.09322 8.23696 2.56411 9.76608 2.56411 14.0644V19.6587C2.56411 23.957 4.09322 25.4861 8.39153 25.4861H13.9859C18.2842 25.4861 19.8133 23.957 19.8133 19.6587V14.0644C19.8133 9.76608 18.2842 8.23696 13.9859 8.23696H8.39153Z" fill="#8897C4"/>
<path d="M8.17712 20.4271C8.24223 19.8766 8.31083 19.2942 8.38044 18.7118C8.40848 18.4786 8.45906 18.246 8.45956 18.0133C8.45956 17.8905 8.40197 17.7415 8.32235 17.6494C7.83659 17.0874 7.33882 16.5364 6.84055 15.9864C6.68931 15.8196 6.58815 15.6424 6.66127 15.4071C6.73338 15.174 6.90615 15.0866 7.12649 15.0443C7.83109 14.9099 8.53318 14.7609 9.23777 14.6229C9.41705 14.5879 9.54075 14.4964 9.62888 14.327C9.97041 13.6678 10.3215 13.0137 10.6635 12.3545C10.7692 12.1511 10.9044 11.9995 11.1382 12C11.3716 12.0005 11.5063 12.1542 11.6115 12.3571C11.9505 13.0106 12.2995 13.6583 12.6371 14.3134C12.7352 14.5042 12.8749 14.5905 13.0757 14.6287C13.7868 14.762 14.4955 14.9084 15.2041 15.0563C15.6362 15.1462 15.7769 15.5912 15.4785 15.9305C14.9832 16.4925 14.4829 17.0498 13.9791 17.6034C13.8389 17.7577 13.7899 17.9161 13.8199 18.1336C13.9211 18.8697 14.0007 19.6089 14.0893 20.3466C14.1159 20.5667 14.0853 20.7654 13.9 20.905C13.7157 21.0435 13.531 21.0153 13.3361 20.918C12.7007 20.6007 12.0587 20.2975 11.4257 19.9744C11.2209 19.8698 11.0476 19.8745 10.8438 19.978C10.1938 20.309 9.53724 20.6253 8.88022 20.94C8.51315 21.1156 8.16911 20.8752 8.17763 20.4276L8.17712 20.4271Z" fill="#8897C4"/>
</svg>
