<svg width="12" height="12" viewBox="0 0 12 12" fill="none" xmlns="http://www.w3.org/2000/svg">
<path d="M0 12V9.16666L8.8 0.383333C8.93333 0.261111 9.08066 0.166667 9.242 0.1C9.40333 0.0333334 9.57266 0 9.75 0C9.92777 0 10.1 0.0333334 10.2667 0.1C10.4333 0.166667 10.5778 0.266667 10.7 0.4L11.6167 1.33333C11.75 1.45555 11.8473 1.6 11.9087 1.76667C11.97 1.93333 12.0004 2.1 12 2.26667C12 2.44444 11.9696 2.614 11.9087 2.77533C11.8478 2.93667 11.7504 3.08378 11.6167 3.21667L2.83333 12H0ZM9.73333 3.2L10.6667 2.26667L9.73333 1.33333L8.8 2.26667L9.73333 3.2Z" fill="#B5B7C0"/>
</svg>
