<svg width="23" height="38" viewBox="0 0 23 38" fill="none" xmlns="http://www.w3.org/2000/svg">
<path d="M8.39146 9.26294H13.9858C18.6477 9.26294 20.5125 11.1277 20.5125 15.7897V21.384C20.5125 24.9084 18.1368 27.5564 13.9858 27.5564H8.39146C3.63684 27.5564 1.86475 24.9084 1.86475 21.384V15.7897C1.86475 11.1277 3.72952 9.26294 8.39146 9.26294Z" stroke="#8897C4" stroke-width="1.39858" stroke-linecap="round" stroke-linejoin="round"/>
<path d="M9.70823 16.4931C9.74361 16.2948 9.78228 16.0761 9.82143 15.8573C9.84077 15.7492 9.866 15.6419 9.87827 15.5334C9.88228 15.4986 9.86482 15.4501 9.83888 15.4253C9.61225 15.2086 9.38255 14.9945 9.15143 14.7821C9.05403 14.6923 9.00781 14.5906 9.05285 14.4636C9.0979 14.3364 9.20143 14.2845 9.3342 14.2669C9.64857 14.2252 9.96222 14.1785 10.2766 14.1377C10.3299 14.1307 10.358 14.1104 10.3811 14.065C10.5195 13.7921 10.6626 13.5215 10.8008 13.2483C10.8593 13.1324 10.9433 13.0541 11.0829 13.0528C11.2265 13.0512 11.3131 13.1301 11.3732 13.2492C11.51 13.5199 11.652 13.7878 11.7892 14.0583C11.813 14.1054 11.839 14.13 11.8979 14.1374C12.2154 14.1778 12.5319 14.2247 12.8491 14.2683C12.9783 14.2861 13.0783 14.3404 13.1207 14.4645C13.1629 14.5874 13.1226 14.6896 13.0278 14.7773C12.7976 14.9907 12.5698 15.2063 12.338 15.4183C12.2939 15.4585 12.2852 15.495 12.2958 15.5514C12.3536 15.8525 12.4066 16.1548 12.4599 16.4566C12.4812 16.5763 12.4521 16.6819 12.3446 16.7554C12.2382 16.8283 12.1265 16.8251 12.0123 16.7674C11.7319 16.6255 11.4496 16.487 11.1709 16.342C11.1081 16.3093 11.0621 16.3124 11.0015 16.3436C10.7171 16.4902 10.4315 16.635 10.1433 16.7746C9.93015 16.8779 9.70092 16.7376 9.708 16.4931H9.70823Z" fill="#8897C4"/>
<rect x="9.29919" y="17.4229" width="3.63311" height="5.34426" rx="0.649465" fill="#8897C4"/>
<rect x="13.6649" y="19.0093" width="2.90063" height="3.75768" rx="0.649465" fill="#8897C4"/>
<rect x="5.63696" y="20.2063" width="2.90063" height="2.56079" rx="0.649465" fill="#8897C4"/>
</svg>
