<svg width="10" height="12" viewBox="0 0 10 12" fill="none" xmlns="http://www.w3.org/2000/svg">
<path d="M9.44444 1.8C9.59179 1.8 9.7331 1.86321 9.83728 1.97574C9.94147 2.08826 10 2.24087 10 2.4C10 2.55913 9.94147 2.71174 9.83728 2.82426C9.7331 2.93679 9.59179 3 9.44444 3H8.88889L8.88722 3.0426L8.36889 10.8852C8.34894 11.188 8.2235 11.4713 8.01784 11.6781C7.81219 11.885 7.54159 12 7.26056 12H2.73889C2.45786 12 2.18726 11.885 1.9816 11.6781C1.77595 11.4713 1.65051 11.188 1.63056 10.8852L1.11222 3.0432C1.11138 3.02882 1.11101 3.01441 1.11111 3H0.555556C0.408213 3 0.266905 2.93679 0.162718 2.82426C0.0585316 2.71174 0 2.55913 0 2.4C0 2.24087 0.0585316 2.08826 0.162718 1.97574C0.266905 1.86321 0.408213 1.8 0.555556 1.8H9.44444ZM6.11111 0C6.25845 0 6.39976 0.0632141 6.50395 0.175736C6.60814 0.288258 6.66667 0.44087 6.66667 0.6C6.66667 0.75913 6.60814 0.911742 6.50395 1.02426C6.39976 1.13679 6.25845 1.2 6.11111 1.2H3.88889C3.74155 1.2 3.60024 1.13679 3.49605 1.02426C3.39187 0.911742 3.33333 0.75913 3.33333 0.6C3.33333 0.44087 3.39187 0.288258 3.49605 0.175736C3.60024 0.0632141 3.74155 0 3.88889 0H6.11111Z" fill="#B5B7C0"/>
</svg>
